<svg xmlns="http://www.w3.org/2000/svg" viewBox="0 0 3975.52 900">
  <title>Userfront</title>
  <g>
    <g>
      <g>
        <path stroke-width="0px" fill="#f2055c" d="m184.33,630.57l-143.36,143.36c-15.12,15.12-40.97,4.41-40.97-16.97V150C0,67.16,67.16,0,150,0h606.96c21.38,0,32.09,25.85,16.97,40.97l-108.78,108.78c-6.18,6.18-15.22,8.5-23.62,6.08-13.19-3.79-27.12-5.83-41.53-5.83h-300c-82.84,0-150,67.16-150,150v145.82c-.09,3-.15,6.01-.15,9.04,0,53.35,13.93,103.44,38.35,146.85,5.3,9.43,3.78,21.22-3.87,28.87Z"/>
        <path stroke-width="0px" fill="#263dbf" d="m750.15,234.46c-6.19,6.19-8.51,15.26-6.07,23.67,3.86,13.29,5.92,27.34,5.92,41.87v158h-.19c-1.43,138.54-96.75,254.57-225.36,287.49-11.93,3.05-24.21,4.51-36.52,4.51h-76.13c-12.42,0-24.8-1.49-36.82-4.58-27.75-7.13-53.96-18.13-77.99-32.39-9.4-5.58-21.39-4.01-29.12,3.72l-142.28,142.28c-15.12,15.12-4.41,40.97,16.97,40.97h607.45c82.84,0,150-67.16,150-150V142.55c0-21.38-25.85-32.09-40.97-16.97l-108.88,108.88Z"/>
      </g>
      <g>
        <path stroke-width="0px" fill="#ffffff" d="m1301.37,347.77h103.2v330.24h-103.2v-47.73h-1.29c-17.42,30.32-49.67,58.05-108.36,58.05-63.86,0-107.07-41.93-107.07-117.39v-223.17h103.2v190.28c0,49.67,17.42,66.44,51.6,66.44,39.35,0,61.92-20,61.92-65.79v-190.92Z"/>
        <path stroke-width="0px" fill="#ffffff" d="m1463.9,568.36h96.75c3.22,32.89,25.16,49.02,64.5,49.02,30.32,0,43.86-9.67,43.86-28.38,0-29.67-32.89-32.9-80.62-43.86-58.05-13.54-118.04-36.76-118.04-103.85,0-61.92,51.6-103.85,144.48-103.85,105.78,0,147.06,53.54,150.29,111.59h-96.75c-3.23-26.45-17.42-40.63-51.6-40.63-28.38,0-40.63,10.32-40.63,26.44,0,21.93,19.35,23.22,69.01,34.83,65.15,15.48,129.65,34.83,129.65,111.58,0,69.02-52.25,107.07-147.71,107.07-115.46,0-160.61-55.47-163.19-119.97Z"/>
        <path stroke-width="0px" fill="#ffffff" d="m2161.79,540.62h-237.36c0,45.79,32.25,70.95,70.95,70.95s52.25-16.77,58.7-33.54h105.13c-18.71,67.08-73.53,110.94-166.41,110.94-107.07,0-171.57-72.88-171.57-176.09,0-96.75,60.63-176.09,171.57-176.09s168.99,66.44,168.99,188.34v15.48Zm-103.85-63.86c0-42.57-25.15-65.15-65.15-65.15s-65.14,22.58-67.72,65.15h132.87Z"/>
        <path stroke-width="0px" fill="#ffffff" d="m2437.85,347.77v90.3c-8.39-1.29-14.19-1.94-21.29-1.94-46.44,0-89.01,29.03-89.01,88.37v153.51h-103.2v-330.24h103.2v54.18h1.29c16.12-34.83,44.5-56.76,80.62-56.76,9.03,0,16.77,0,28.38,2.58Z"/>
        <path stroke-width="0px" fill="#ffffff" d="m2624.25,327.13v20.64h57.41v77.4h-57.41v252.84h-103.2v-252.84h-44.5v-77.4h44.5v-23.22c0-80.63,30.96-113.52,101.91-113.52,19.35,0,36.76,1.94,58.7,6.45v72.89c-12.25-1.29-17.42-1.94-25.8-1.94-18.06,0-31.6,3.23-31.6,38.7Z"/>
        <path stroke-width="0px" fill="#ffffff" d="m2949.32,347.77v90.3c-8.39-1.29-14.19-1.94-21.29-1.94-46.44,0-89.01,29.03-89.01,88.37v153.51h-103.2v-330.24h103.2v54.18h1.29c16.12-34.83,44.5-56.76,80.62-56.76,9.03,0,16.77,0,28.38,2.58Z"/>
        <path stroke-width="0px" fill="#ffffff" d="m2978.99,513.53c0-103.85,66.44-176.73,177.38-176.73s175.44,70.95,175.44,174.8-66.44,177.38-177.38,177.38-175.44-70.95-175.44-175.44Zm248.33-.64c0-63.86-25.8-98.69-71.6-98.69s-72.24,34.83-72.24,98.69,25.8,98.69,72.24,98.69,71.6-34.83,71.6-98.69Z"/>
        <path stroke-width="0px" fill="#ffffff" d="m3713.65,454.84v223.17h-103.2v-190.28c0-49.67-17.42-66.44-51.6-66.44-39.34,0-61.92,20-61.92,65.79v190.92h-103.2v-330.24h103.2v47.73h1.29c17.42-30.32,49.67-58.05,108.36-58.05,63.86,0,107.07,41.93,107.07,117.39Z"/>
        <path stroke-width="0px" fill="#ffffff" d="m3975.52,604.48v72.89c-21.93,5.16-40.64,7.09-61.28,7.09-72.24,0-103.2-32.9-103.2-113.52v-145.77h-45.79v-77.4h45.79v-92.24h103.2v92.24h57.41v77.4h-57.41v143.19c0,35.47,13.54,38.7,33.54,38.7,9.67,0,15.48-.65,27.74-2.58Z"/>
      </g>
    </g>
  </g>
</svg>
